# xmcd
#
# Track frame offsets:
#	150
#	17568
#	36845
#	61680
#	77275
#	96660
#	115523
#	133602
#	154567
#	172255
#	189170
#
# Disc length: 2783 seconds
#
# Revision: 0
# Processed by: cddbd v1.4b42PL1 Copyright (c) Steve Scherf et al.
# Submitted via: EasyCDDAExtractor 4.5.0.2
#
DISCID=7d0add0b
DTITLE=Sarah Jory - Kiss My Innocence
DYEAR=1900
DGENRE=Country
TTITLE0=Always the same in love
TTITLE1=Kiss my innocence
TTITLE2=Jealous Guy
TTITLE3=Talk to me
TTITLE4=Out of my hands
TTITLE5=Stay the night
TTITLE6=Rhythm in the rain
TTITLE7=Eyes of love
TTITLE8=Last horizon
TTITLE9=Wounded I bleed
TTITLE10=Knock on wood
EXTD=
EXTT0=
EXTT1=
EXTT2=
EXTT3=
EXTT4=
EXTT5=
EXTT6=
EXTT7=
EXTT8=
EXTT9=
EXTT10=
PLAYORDER=
